<svg 
xmlns="http://www.w3.org/2000/svg" 
xmlns:xlink="http://www.w3.org/1999/xlink"
preserveAspectRatio="xMidYMid meet"
viewBox="-100 -10 1300 850">

<g>
<title> Hilton Orrington Heritage Room </title>

<g>
  <title>Room outline</title>
  <path class="room"  
        d="
        M 0,0
        l 865,0
        l 0,595
        l -140,0
        l 0,25
        l-120,0
        l 0,-25
        l -605, 0
        z" 
  />
</g>

 <g>
  <title> Booths </title>

  <g transform="translate(670, 30)">
    <rect class="booth" x="0" y="0" width="60" height="60"></rect>
    <text class="bNum" x="30" y="30"> 13 </text>
  </g>
  <g transform="translate(500, 30)">
    <rect class="booth" x="0" y="0" width="60" height="60"></rect>
    <text class="bNum" x="30" y="30"> 12 </text>
  </g>
  <g transform="translate(290, 30)">
    <rect class="booth" x="0" y="0" width="60" height="60"></rect>
    <text class="bNum" x="30" y="30"> 11 </text>
  </g>
  <g transform="translate(160, 30)"> <!-- was 130, 30 -->
    <rect class="booth" x="0" y="0" width="60" height="60"></rect>
    <text class="bNum" x="30" y="30"> 10 </text>
  </g>
  <g transform="translate(30, 30)">
    <rect class="booth" x="0" y="0" width="60" height="60"></rect>
    <text class="bNum" x="30" y="30"> 9 </text>
  </g>
  <g transform="translate(30, 155)">
    <rect class="booth" x="0" y="0" width="60" height="60"></rect>
    <text class="bNum" x="30" y="30"> 8 </text>
  </g>
  <g transform="translate(30, 270)">
    <rect class="booth" x="0" y="0" width="60" height="60"></rect>
    <text class="bNum" x="30" y="30"> 7 </text>
  </g>
  <g transform="translate(30, 370)">
    <rect class="booth" x="0" y="0" width="60" height="60"></rect>
    <text class="bNum" x="30" y="30"> 6 </text>
  </g>
  <g transform="translate(30, 490)">
    <rect class="booth" x="0" y="0" width="60" height="60"></rect>
    <text class="bNum" x="30" y="30"> 5 </text>
  </g>
  <g transform="translate(180, 490)">
    <rect class="booth" x="0" y="0" width="60" height="60"></rect>
    <text class="bNum" x="30" y="30"> 4 </text>
  </g>
  <g transform="translate(295, 490)">
    <rect class="booth" x="0" y="0" width="60" height="60"></rect>
    <text class="bNum" x="30" y="30"> 3 </text>
  </g>
  <g transform="translate(405, 490)">
    <rect class="booth" x="0" y="0" width="60" height="60"></rect>
    <text class="bNum" x="30" y="30"> 2 </text>
  </g>
  <g transform="translate(520, 490)">
    <rect class="booth" x="0" y="0" width="60" height="60"></rect>
    <text class="bNum" x="30" y="30"> 1 </text>
  </g>
  <g transform="translate(635, 575)" \>
    <text class="bNum" x="30" y="30"> Entrance </text>
  </g>
<g transform="translate(760, 70)">
    <rect class="booth" x="0" y="0" width="60" height="60"></rect>
    <text class="bNum" x="30" y="30"> 14 </text>
  </g>
  <g transform="translate(760, 210)">
    <rect class="booth" x="0" y="0" width="60" height="60"></rect>
    <text class="bNum" x="30" y="30"> 15 </text>
  </g>
  <g transform="translate(760, 310)">
    <rect class="booth" x="0" y="0" width="60" height="60"></rect>
    <text class="bNum" x="30" y="30"> 16 </text>
  </g>
  <g transform="translate(760, 405)">
    <rect class="booth" x="0" y="0" width="60" height="60"></rect>
    <text class="bNum" x="30" y="30"> 17 </text>
  </g>
  <g transform="translate(245, 200)">
    <rect class="booth" x="0" y="0" width="60" height="60"></rect>
    <text class="bNum" x="30" y="30"> 19 </text>
  </g>
  <g transform="translate(350, 200)">
    <rect class="booth" x="0" y="0" width="60" height="60"></rect>
    <text class="bNum" x="30" y="30"> 20 </text>
  </g>
    <g transform="translate(455, 200)">
    <rect class="booth" x="0" y="0" width="60" height="60"></rect>
    <text class="bNum" x="30" y="30"> 21 </text>
  </g>
  <g transform="translate(560, 200)">
    <rect class="booth" x="0" y="0" width="60" height="60"></rect>
    <text class="bNum" x="30" y="30"> 22 </text>
  </g>
  <g transform="translate(245, 285)">
    <rect class="booth" x="0" y="0" width="60" height="60"></rect>
    <text class="bNum" x="30" y="30"> 26 </text>
  </g>
  <g transform="translate(350, 285)">
    <rect class="booth" x="0" y="0" width="60" height="60"></rect>
    <text class="bNum" x="30" y="30"> 25 </text>
  </g>
  <g transform="translate(455, 285)">
    <rect class="booth" x="0" y="0" width="60" height="60"></rect>
    <text class="bNum" x="30" y="30"> 24 </text>
  </g>
    <g transform="translate(560, 285)">
    <rect class="booth" x="0" y="0" width="60" height="60"></rect>
    <text class="bNum" x="30" y="30"> 23 </text>
  </g>

 </g> <!-- /booths -->
</g> <!-- /room -->


</svg>